<svg width="40" height="40" viewBox="0 0 40 40" fill="none" xmlns="http://www.w3.org/2000/svg">
<path d="M26 2.46C26 1.1 24.9 0 23.53 0H2.47001C1.81665 -5.35452e-06 1.18991 0.258853 0.726982 0.719907C0.264054 1.18096 0.00265486 1.80665 9.68984e-06 2.46V32.54C-0.00114504 32.9515 0.100924 33.3566 0.296874 33.7184C0.492824 34.0802 0.776395 34.3871 1.12163 34.611C1.46686 34.8348 1.86273 34.9685 2.273 34.9998C2.68327 35.0311 3.09483 34.9589 3.47001 34.79L13.67 30.26L24.53 25.43C25.43 25.03 26 24.16 26 23.18V2.46Z" fill="url(#paint0_linear_7_122)"/>
<path d="M26.5 39C30.0804 39 33.5142 37.5777 36.0459 35.0459C38.5777 32.5142 40 29.0804 40 25.5C40 21.9196 38.5777 18.4858 36.0459 15.9541C33.5142 13.4223 30.0804 12 26.5 12C22.9196 12 19.4858 13.4223 16.9541 15.9541C14.4223 18.4858 13 21.9196 13 25.5C13 29.0804 14.4223 32.5142 16.9541 35.0459C19.4858 37.5777 22.9196 39 26.5 39Z" fill="#00D924"/>
<path d="M25.9999 12V23.18C25.9999 24.16 25.4299 25.04 24.5299 25.43L13.8299 30.19C13.0863 28.1871 12.8287 26.0362 13.0783 23.9143C13.3278 21.7924 14.0775 19.76 15.2655 17.9843C16.4536 16.2086 18.0461 14.7402 19.9123 13.6998C21.7784 12.6595 23.8648 12.0769 25.9999 12Z" fill="url(#paint1_linear_7_122)"/>
<defs>
<linearGradient id="paint0_linear_7_122" x1="13" y1="6.35" x2="13" y2="35.03" gradientUnits="userSpaceOnUse">
<stop stop-color="#FFD748"/>
<stop offset="1" stop-color="#FFC148"/>
</linearGradient>
<linearGradient id="paint1_linear_7_122" x1="19.4999" y1="12.01" x2="19.4999" y2="30.19" gradientUnits="userSpaceOnUse">
<stop stop-color="#00A600"/>
<stop offset="1" stop-color="#00D924"/>
</linearGradient>
</defs>
</svg>
