<svg width="40" height="40" viewBox="0 0 40 40" fill="none" xmlns="http://www.w3.org/2000/svg">
<path d="M12.7419 13.9523H11.5316C5.48385 13.9523 0.645142 19.2994 0.645142 25.4426C0.645142 31.5858 5.48385 36.9342 11.5329 36.9342H24.8387C26.1742 36.9342 27.258 35.8504 27.258 34.5149V26.0465H15.1613C14.5196 26.0465 13.9042 25.7916 13.4505 25.3379C12.9968 24.8842 12.7419 24.2688 12.7419 23.6271V13.9497V13.9523Z" fill="url(#paint0_linear_7_265)"/>
<path d="M27.2581 16.3716C27.2581 15.0348 26.1742 13.9509 24.8387 13.9509H12.7419V23.6283C12.7419 24.9651 13.8258 26.0477 15.1613 26.0477H27.2581V16.3716Z" fill="url(#paint1_linear_7_265)"/>
<path d="M12.7419 5.48393C12.7419 4.14716 13.8258 3.06458 15.1613 3.06458H28.4684C34.5161 3.06458 39.3548 8.41296 39.3548 14.5562C39.3548 20.7007 34.5161 26.0478 28.4671 26.0478H27.2581V16.3704C27.2581 15.0349 26.1742 13.9523 24.8387 13.9523H12.7419V5.48393Z" fill="#9A66FF"/>
<defs>
<linearGradient id="paint0_linear_7_265" x1="12.7419" y1="15.1613" x2="6.93546" y2="37.4194" gradientUnits="userSpaceOnUse">
<stop stop-color="#E03071"/>
<stop offset="1" stop-color="#FF5091"/>
</linearGradient>
<linearGradient id="paint1_linear_7_265" x1="16.6129" y1="25.8064" x2="20.1007" y2="11.6851" gradientUnits="userSpaceOnUse">
<stop stop-color="#9860FE"/>
<stop offset="1" stop-color="#6E00F5"/>
</linearGradient>
</defs>
</svg>
