<svg width="40" height="40" viewBox="0 0 40 40" fill="none" xmlns="http://www.w3.org/2000/svg">
<path d="M34.61 11.28C34.3251 10.8117 33.8975 10.4471 33.39 10.24L8.53996 0.200004C8.14814 0.0402949 7.72296 -0.0202062 7.30215 0.0238719C6.88134 0.0679501 6.47792 0.215244 6.1277 0.452678C5.77749 0.690111 5.49131 1.01034 5.29458 1.38493C5.09785 1.75953 4.99664 2.1769 4.99996 2.6V15C4.99996 16.05 5.63996 17 6.60996 17.4L13.05 20L34.61 28.72C34.87 28.32 35.01 27.84 35 27.36V12.64C35 12.16 34.87 11.68 34.61 11.27V11.28Z" fill="url(#paint0_linear_7_178)"/>
<path d="M34.63 11.28L13.06 20L6.61002 22.6C6.13275 22.7937 5.72437 23.1257 5.43744 23.5534C5.15051 23.9812 4.99816 24.485 5.00002 25V37.42C5.00079 37.8414 5.10477 38.2562 5.30286 38.6281C5.50095 39 5.78712 39.3178 6.13636 39.5536C6.48561 39.7894 6.88729 39.936 7.3063 39.9807C7.72531 40.0254 8.14889 39.9668 8.54002 39.81L33.4 29.76C33.9 29.55 34.33 29.19 34.61 28.72C34.87 28.31 35.01 27.84 35 27.36V12.64C35 12.16 34.88 11.69 34.63 11.28Z" fill="#9966FF"/>
<path d="M34.6201 11.28L34.7201 11.45C34.9001 11.82 35.0001 12.22 35.0001 12.64V12.61V27.36C35.0001 27.84 34.8701 28.31 34.6101 28.72L13.0601 20L34.6201 11.28Z" fill="url(#paint1_linear_7_178)"/>
<defs>
<linearGradient id="paint0_linear_7_178" x1="20" y1="4.13" x2="20" y2="21.13" gradientUnits="userSpaceOnUse">
<stop stop-color="#11EFE3"/>
<stop offset="1" stop-color="#21CFE0"/>
</linearGradient>
<linearGradient id="paint1_linear_7_178" x1="35.0001" y1="11.28" x2="35.0001" y2="28.72" gradientUnits="userSpaceOnUse">
<stop stop-color="#0048E5"/>
<stop offset="1" stop-color="#9B66FF"/>
</linearGradient>
</defs>
</svg>
