<svg width="40" height="40" viewBox="0 0 40 40" fill="none" xmlns="http://www.w3.org/2000/svg">
<path d="M24.87 4.46001C24.7399 4.35229 24.5893 4.27186 24.4275 4.2235C24.2656 4.17513 24.0956 4.15982 23.9277 4.17848C23.7597 4.19714 23.5973 4.24939 23.4499 4.33211C23.3026 4.41483 23.1734 4.52634 23.07 4.66001L18.47 10.48L3.42004 29.45C3.69004 29.67 3.96004 29.9 4.20004 30.15C4.61657 30.5543 4.99485 30.9961 5.33004 31.47L5.43004 31.6C5.73894 32.0518 6.00668 32.5304 6.23004 33.03C6.52004 33.65 6.73004 34.31 6.88004 34.98C7.00923 35.5318 7.32204 36.0232 7.76718 36.3739C8.21232 36.7246 8.76339 36.9136 9.33004 36.91H38.7C38.8694 36.9101 39.037 36.8762 39.1931 36.8105C39.3492 36.7449 39.4905 36.6486 39.6088 36.5275C39.7272 36.4064 39.8201 36.2628 39.8821 36.1052C39.9441 35.9477 39.974 35.7793 39.97 35.61C39.784 29.6481 38.3431 23.7924 35.7412 18.425C33.1394 13.0576 29.4351 8.29914 24.87 4.46001Z" fill="#9A66FF"/>
<path d="M27.8 21.98C25.6407 17.6351 22.5719 13.8055 18.8017 10.7515C15.0316 7.69743 10.6485 5.49033 5.94995 4.28002C5.78309 4.24018 5.60996 4.23402 5.44069 4.2619C5.27142 4.28979 5.10941 4.35115 4.96415 4.44241C4.81888 4.53367 4.69327 4.65298 4.59468 4.79337C4.49609 4.93376 4.42649 5.09241 4.38995 5.26002L0.0999533 25.4C-0.0327249 25.9678 0.0340034 26.564 0.288934 27.0884C0.543864 27.6129 0.971471 28.0336 1.49995 28.28C2.509 28.7395 3.42962 29.3724 4.21995 30.15L4.38995 30.32C4.73995 30.68 5.05995 31.06 5.34995 31.47L5.44995 31.6C5.75885 32.0518 6.02659 32.5304 6.24995 33.03L27.19 23.72C27.3464 23.6482 27.4869 23.5458 27.6031 23.4188C27.7193 23.2918 27.809 23.1429 27.8668 22.9807C27.9245 22.8186 27.9493 22.6465 27.9395 22.4746C27.9298 22.3028 27.8857 22.1346 27.81 21.98H27.8Z" fill="url(#paint0_linear_7_189)"/>
<path d="M18.4601 10.48L18.9301 10.86C22.6416 13.8959 25.6651 17.6864 27.8001 21.98C27.8758 22.1346 27.9199 22.3027 27.9296 22.4746C27.9394 22.6465 27.9146 22.8185 27.8569 22.9807C27.7991 23.1428 27.7094 23.2918 27.5932 23.4188C27.477 23.5457 27.3365 23.6481 27.1801 23.72L6.25005 33.03C6.02669 32.5303 5.75895 32.0518 5.45005 31.6L5.35005 31.47L5.12005 31.17C4.89005 30.87 4.65005 30.59 4.38005 30.32C4.08269 30.0127 3.76533 29.7254 3.43005 29.46L18.4601 10.48Z" fill="url(#paint1_linear_7_189)"/>
<defs>
<linearGradient id="paint0_linear_7_189" x1="13.98" y1="4.24002" x2="13.98" y2="33.03" gradientUnits="userSpaceOnUse">
<stop offset="0.26" stop-color="#FF5091"/>
<stop offset="0.91" stop-color="#E03071"/>
</linearGradient>
<linearGradient id="paint1_linear_7_189" x1="15.6801" y1="10.48" x2="15.6801" y2="33.03" gradientUnits="userSpaceOnUse">
<stop stop-color="#6E00F5"/>
<stop offset="1" stop-color="#9860FE"/>
</linearGradient>
</defs>
</svg>
