<svg width="40" height="40" viewBox="0 0 40 40" fill="none" xmlns="http://www.w3.org/2000/svg">
<path d="M24.4531 3.37679C24.4535 2.90609 24.314 2.44589 24.0523 2.05463C23.7907 1.66337 23.4186 1.35869 22.9834 1.17928C22.5483 0.999871 22.0696 0.953818 21.6082 1.04698C21.1468 1.14013 20.7235 1.36829 20.3921 1.70249L3.57784 18.493C3.24291 18.8251 3.01449 19.2495 2.9217 19.712C2.82892 20.1746 2.87597 20.6542 3.05685 21.0899C3.23774 21.5255 3.54427 21.8975 3.93736 22.1582C4.33045 22.419 4.7923 22.5568 5.26401 22.554H10.0138L24.4531 8.12657V3.37679Z" fill="url(#paint0_linear_7_244)"/>
<path d="M33.7627 8.12634H24.4531V20.1789C24.4531 20.8088 24.2029 21.4128 23.7575 21.8582C23.3122 22.3036 22.7081 22.5538 22.0782 22.5538H10.0138V36.625C10.0138 37.2549 10.264 37.859 10.7094 38.3043C11.1548 38.7497 11.7588 38.9999 12.3887 38.9999H33.7627C34.3926 38.9999 34.9966 38.7497 35.442 38.3043C35.8874 37.859 36.1376 37.2549 36.1376 36.625V10.5012C36.1376 9.87137 35.8874 9.26731 35.442 8.82193C34.9966 8.37655 34.3926 8.12634 33.7627 8.12634Z" fill="#9A66FF"/>
<path d="M24.4531 20.1789V8.12634L10.0138 22.5538H22.0782C22.7081 22.5538 23.3122 22.3036 23.7575 21.8582C24.2029 21.4128 24.4531 20.8088 24.4531 20.1789Z" fill="url(#paint1_linear_7_244)"/>
<defs>
<linearGradient id="paint0_linear_7_244" x1="13.7647" y1="0.999999" x2="13.7647" y2="22.3532" gradientUnits="userSpaceOnUse">
<stop offset="0.270725" stop-color="#FF5091"/>
<stop offset="1" stop-color="#E03071"/>
</linearGradient>
<linearGradient id="paint1_linear_7_244" x1="16.0302" y1="22.3652" x2="24.2719" y2="6.84356" gradientUnits="userSpaceOnUse">
<stop stop-color="#6E00F5"/>
<stop offset="1" stop-color="#9860FE"/>
</linearGradient>
</defs>
</svg>
