<svg width="40" height="40" viewBox="0 0 40 40" fill="none" xmlns="http://www.w3.org/2000/svg">
<path d="M5 35V6.99997C4.99959 6.3584 5.20486 5.7336 5.58569 5.21729C5.96651 4.70097 6.50283 4.32034 7.1159 4.13128C7.72898 3.94221 8.38652 3.95466 8.992 4.1668C9.59748 4.37895 10.119 4.77961 10.48 5.30997L21.2 21L9.32 38H8C7.20435 38 6.44129 37.6839 5.87868 37.1213C5.31607 36.5587 5 35.7956 5 35Z" fill="url(#paint0_linear_7_193)"/>
<path d="M8.06003 4.00001H33.22C33.51 4.00175 33.7932 4.08748 34.0354 4.24684C34.2777 4.40619 34.4685 4.63233 34.5849 4.8979C34.7013 5.16346 34.7382 5.45707 34.6912 5.74318C34.6442 6.02929 34.5153 6.29565 34.32 6.51001L21.15 21L5.84003 4.92001C6.12552 4.62318 6.46907 4.38831 6.84929 4.23003C7.2295 4.07175 7.63823 3.99345 8.05003 4.00001H8.06003Z" fill="url(#paint1_linear_7_193)"/>
<path d="M7.88003 38H33.2C33.4908 38.0002 33.7754 37.9159 34.0191 37.7573C34.2629 37.5986 34.4552 37.3726 34.5729 37.1067C34.6905 36.8407 34.7282 36.5463 34.6816 36.2593C34.6349 35.9723 34.5058 35.705 34.31 35.49L21.11 21L7.14003 36.33C7.01057 36.4734 6.92544 36.6513 6.89493 36.8421C6.86442 37.0329 6.88984 37.2285 6.96812 37.4051C7.0464 37.5818 7.17418 37.732 7.33602 37.8375C7.49785 37.9431 7.6868 37.9995 7.88003 38Z" fill="#9A66FF"/>
<defs>
<linearGradient id="paint0_linear_7_193" x1="13.1" y1="38" x2="13.1" y2="12.99" gradientUnits="userSpaceOnUse">
<stop stop-color="#9860FE"/>
<stop offset="1" stop-color="#6E00F5"/>
</linearGradient>
<linearGradient id="paint1_linear_7_193" x1="20.28" y1="8.42001" x2="20.28" y2="19.47" gradientUnits="userSpaceOnUse">
<stop stop-color="#FF5091"/>
<stop offset="1" stop-color="#E03071"/>
</linearGradient>
</defs>
</svg>
