<svg width="40" height="40" viewBox="0 0 40 40" fill="none" xmlns="http://www.w3.org/2000/svg">
<path d="M19.049 0.00995853C22.4341 0.325767 25.7367 1.28014 28.7794 2.83046C31.822 4.38077 34.5354 6.49169 36.7806 9.04466C37.6948 10.0842 37.4382 11.6609 36.3182 12.4746L20.5259 23.9483C18.869 25.1522 16.5459 23.9685 16.5459 21.9204V2.40011C16.5459 1.01572 17.6706 -0.118639 19.049 0.00995853Z" fill="url(#paint0_linear_7_200)"/>
<path d="M33.3332 24.3334C33.3332 15.681 26.319 8.6668 17.6666 8.6668C9.01418 8.6668 2 15.681 2 24.3334C2 32.9858 9.01418 40 17.6666 40C26.319 40 33.3332 32.9858 33.3332 24.3334Z" fill="#9966FF"/>
<path d="M31.099 16.2665L20.5259 23.9483C18.869 25.1521 16.5459 23.9684 16.5459 21.9203V8.70618C16.9159 8.68004 17.2895 8.66675 17.6661 8.66675C23.368 8.66675 28.3585 11.7128 31.099 16.2665Z" fill="url(#paint1_linear_7_200)"/>
<defs>
<linearGradient id="paint0_linear_7_200" x1="27.6927" y1="-0.106484" x2="27.6927" y2="20.5734" gradientUnits="userSpaceOnUse">
<stop offset="0.23665" stop-color="#FF5191"/>
<stop offset="1" stop-color="#E03071"/>
</linearGradient>
<linearGradient id="paint1_linear_7_200" x1="23.3061" y1="24.96" x2="18.8407" y2="7.43349" gradientUnits="userSpaceOnUse">
<stop stop-color="#6E00F5"/>
<stop offset="1" stop-color="#9860FE"/>
</linearGradient>
</defs>
</svg>
