<svg width="40" height="40" viewBox="0 0 40 40" fill="none" xmlns="http://www.w3.org/2000/svg">
<g clip-path="url(#clip0_7_207)">
<path d="M36.98 14.05L30.67 15.41L9.33001 20L1.98001 21.58C1.41739 21.7034 0.914033 22.0158 0.553765 22.4653C0.193496 22.9147 -0.00193614 23.474 1.44612e-05 24.05V37.47C1.44612e-05 38.87 1.12001 40 2.50001 40H37.5C38.88 40 40 38.87 40 37.47V16.53C40 15.76 39.66 15.04 39.07 14.56C38.7814 14.3252 38.4438 14.1584 38.082 14.0718C37.7202 13.9853 37.3436 13.9812 36.98 14.06V14.05Z" fill="#9B66FF"/>
<path d="M28.59 -4.63069e-05H11.58C11.2464 -0.00534073 10.9151 0.0551283 10.6049 0.177907C10.2947 0.300686 10.0117 0.48337 9.77214 0.715524C9.53256 0.947679 9.34106 1.22476 9.20857 1.53093C9.07608 1.83711 9.00521 2.16638 9 2.49995V27.5C9 28.88 10.15 30 11.58 30H28.42C28.7536 30.0052 29.0849 29.9448 29.3951 29.822C29.7053 29.6992 29.9883 29.5165 30.2279 29.2844C30.4674 29.0522 30.6589 28.7752 30.7914 28.469C30.9239 28.1628 30.9948 27.8335 31 27.5V2.49995C31.0004 1.85222 30.7494 1.2296 30.2999 0.763261C29.8503 0.296923 29.2373 0.0232721 28.59 -4.63069e-05Z" fill="url(#paint0_linear_7_207)"/>
<path d="M31 15.34V27.5C31 28.88 29.85 30 28.42 30H11.58C11.2464 30.0053 10.9151 29.9448 10.6049 29.822C10.2947 29.6992 10.0117 29.5166 9.77214 29.2844C9.53256 29.0522 9.34106 28.7752 9.20857 28.469C9.07608 28.1628 9.00521 27.8335 9 27.5V20.07L9.33 20L30.67 15.41L31 15.34Z" fill="url(#paint1_linear_7_207)"/>
</g>
<defs>
<linearGradient id="paint0_linear_7_207" x1="20" y1="1.96995" x2="20" y2="17.6" gradientUnits="userSpaceOnUse">
<stop stop-color="#11EFE3"/>
<stop offset="0.33" stop-color="#15E8E2"/>
<stop offset="0.74" stop-color="#1FD3E0"/>
<stop offset="1" stop-color="#21CFE0"/>
</linearGradient>
<linearGradient id="paint1_linear_7_207" x1="31" y1="22.67" x2="5.34" y2="22.67" gradientUnits="userSpaceOnUse">
<stop stop-color="#0048E5"/>
<stop offset="0.64" stop-color="#625AF5"/>
<stop offset="1" stop-color="#8A62FC"/>
</linearGradient>
<clipPath id="clip0_7_207">
<rect width="40" height="40" fill="white"/>
</clipPath>
</defs>
</svg>
