<svg width="40" height="40" viewBox="0 0 40 40" fill="none" xmlns="http://www.w3.org/2000/svg">
<path d="M11.076 2.53174H35.4999C36.6044 2.53174 37.4999 3.42717 37.4999 4.53174V28.9556C37.4999 29.7899 36.7942 30.4505 35.9618 30.395C21.8316 29.4531 10.5786 18.2 9.6366 4.06982C9.5847 3.28949 10.162 2.62018 10.9218 2.53955L11.076 2.53174Z" stroke="#C4CCD8"/>
<path d="M4.07605 9.53174H28.4999C29.6044 9.53174 30.4999 10.4272 30.4999 11.5317V35.9556C30.4999 36.7899 29.7942 37.4505 28.9618 37.395C14.8316 36.4531 3.57861 25.2 2.6366 11.0698C2.58124 10.2374 3.2418 9.53178 4.07605 9.53174Z" stroke="#C4CCD8"/>
<path d="M28.5 9.53174C29.6045 9.53184 30.5 10.4273 30.5 11.5317V29.4897C20.7823 26.8829 13.1479 19.2495 10.541 9.53174H28.5Z" stroke="#C4CCD8"/>
</svg>
