<svg width="42" height="42" viewBox="0 0 42 42" fill="none" xmlns="http://www.w3.org/2000/svg">
<path d="M27 3.46479C27 2.10352 25.8941 1 24.53 1H3.47002C2.10586 1 1 2.10352 1 3.46479V33.5352C1 34.3696 1.42306 35.1474 2.12421 35.602C2.82536 36.0566 3.7094 36.1264 4.47346 35.7874L14.6623 31.2645L25.5334 26.4336C26.4253 26.0379 27 25.1553 27 24.1814V12.2887V3.46479Z" stroke="#C4CCD8"/>
<path d="M27.5 40C34.9558 40 41 33.9558 41 26.5C41 19.0442 34.9558 13 27.5 13C20.0442 13 14 19.0442 14 26.5C14 33.9558 20.0442 40 27.5 40Z" stroke="#C4CCD8"/>
</svg>
