<svg width="42" height="42" viewBox="0 0 42 42" fill="none" xmlns="http://www.w3.org/2000/svg">
<g clip-path="url(#clip0_7_136)">
<path d="M13.4662 1.01005C6.61677 1.30232 1.16736 6.8458 1.00377 13.6876C0.840179 20.5294 6.01843 26.3261 12.8461 26.9443C13.2181 26.9752 13.5902 27 13.9716 27H24.5196C25.8895 27 27 25.8914 27 24.5239V14.0097C27.0027 10.4716 25.5607 7.0853 23.0068 4.63217C20.4529 2.17904 17.0076 0.87105 13.4662 1.01005Z" stroke="#C4CCD8"/>
<path d="M28.5338 40.99C35.3832 40.6977 40.8326 35.1542 40.9962 28.3124C41.1598 21.4706 35.9816 15.6739 29.1539 15.0557C28.7819 15.0248 28.4098 15 28.0284 15H17.4804C16.1105 15 15 16.1086 15 17.4761V27.9903C14.9973 31.5284 16.4393 34.9147 18.9932 37.3678C21.5471 39.821 24.9924 41.1289 28.5338 40.99Z" stroke="#C4CCD8"/>
</g>
<defs>
<clipPath id="clip0_7_136">
<rect width="42" height="42" fill="white"/>
</clipPath>
</defs>
</svg>
