<svg width="40" height="40" viewBox="0 0 40 40" fill="none" xmlns="http://www.w3.org/2000/svg">
<path d="M11.5319 14.4526H12.2418V23.6274C12.2419 24.4016 12.5499 25.1445 13.0973 25.6919C13.6447 26.2391 14.3877 26.5464 15.1617 26.5464H26.7584V34.5151C26.7583 35.5744 25.8978 36.4341 24.8385 36.4341H11.5328C5.79172 36.4341 1.14528 31.3426 1.14514 25.4429C1.14514 19.5431 5.7919 14.4526 11.5319 14.4526Z" stroke="#C4CCD8"/>
<path d="M15.1609 3.56458H28.4685C34.2082 3.56464 38.855 8.6561 38.8552 14.5558C38.8552 20.4567 34.2086 25.5477 28.4675 25.548H27.7585V16.3702C27.7585 14.7583 26.4499 13.4523 24.8386 13.4523H13.2419V5.48352C13.2422 4.42339 14.1017 3.5648 15.1609 3.56458Z" stroke="#C4CCD8"/>
</svg>
