<svg width="42" height="42" viewBox="0 0 42 42" fill="none" xmlns="http://www.w3.org/2000/svg">
<path fill-rule="evenodd" clip-rule="evenodd" d="M3 18H36C37.6569 18 39 19.3431 39 21V38C39 39.6569 37.6569 41 36 41H6C4.34315 41 3 39.6569 3 38V18Z" stroke="#C4CCD8"/>
<path d="M18.7719 1.36251L4.03125 12.0781C3.38374 12.5482 3.00038 13.2999 3 14.1V38.1229C3.00205 39.1052 3.67192 40.1392 4.68404 40.7099C4.5 40.5987 4.33968 38.3548 5.35313 37.6781L20.7188 26.5125C21.3663 26.0424 21.7496 25.2908 21.75 24.4906V2.87501C21.7486 2.17037 21.3523 1.52599 20.724 1.20692C20.0958 0.887839 19.3417 0.947945 18.7719 1.36251Z" stroke="#C4CCD8"/>
</svg>
