<svg width="42" height="42" viewBox="0 0 42 42" fill="none" xmlns="http://www.w3.org/2000/svg">
<path d="M35.6131 12.275C35.3256 11.8093 34.897 11.448 34.3898 11.2437L9.54483 1.19065C8.7501 0.868392 7.84738 0.963 7.13649 1.44305C6.4256 1.9231 5.99961 2.72574 6 3.5844V16C5.99917 17.053 6.63785 18.0006 7.61327 18.3937L14.0539 21L35.6131 29.7219C35.8673 29.3131 36.0014 28.8409 36 28.3594V13.6375C36.0014 13.1559 35.8673 12.6837 35.6131 12.275Z" stroke="#C4CCD8"/>
<path d="M35.6252 12.2782L14.0603 21.0001L7.61394 23.6094C6.63917 24.0021 6.00045 24.9482 6 26.0001V38.4157C6 39.2735 6.42577 40.0753 7.13608 40.5552C7.84639 41.0351 8.74845 41.1304 9.54317 40.8094L34.4015 30.7563C34.9059 30.5493 35.3305 30.1856 35.6128 29.7188C35.8666 29.3099 36.0008 28.8378 36 28.3563V13.6407C36.005 13.1604 35.8752 12.6882 35.6252 12.2782Z" stroke="#C4CCD8"/>
</svg>
