<svg width="42" height="42" viewBox="0 0 42 42" fill="none" xmlns="http://www.w3.org/2000/svg">
<path d="M25.8753 5.46511C25.6127 5.24855 25.2739 5.14699 24.9356 5.18341C24.5972 5.21984 24.2877 5.39117 24.0773 5.65865L19.4637 11.4834L4.43359 30.4529C4.70702 30.6696 4.96857 30.9009 5.21709 31.1458C5.2764 31.202 5.32947 31.2582 5.38566 31.3175C5.73625 31.6753 6.05775 32.0604 6.34708 32.4694L6.44073 32.6036C6.74167 33.0419 7.00383 33.5057 7.22423 33.9895C7.23372 34.0034 7.24207 34.018 7.2492 34.0332L7.24608 34.0301C7.53217 34.6538 7.74886 35.3069 7.89223 35.9779C8.15501 37.116 9.17153 37.9199 10.3395 37.9135H39.7098C40.0512 37.9135 40.3782 37.7761 40.6171 37.5324C40.8561 37.2887 40.987 36.9591 40.9806 36.6178C40.6039 24.5582 35.1108 13.2292 25.8753 5.46511Z" stroke="#C4CCD8"/>
<path d="M28.8045 22.983C26.5798 18.5055 23.3901 14.577 19.4649 11.4803C15.7607 8.58192 11.5033 6.47124 6.95386 5.2778C6.61664 5.19686 6.26103 5.25519 5.96734 5.43963C5.67365 5.62406 5.46666 5.91905 5.39311 6.25796L1.08541 26.4011C0.814059 27.5719 1.40014 28.7727 2.4901 29.2791C3.18102 29.5924 3.83183 29.9875 4.42856 30.4559C4.70198 30.6727 4.96353 30.904 5.21206 31.1489C5.27137 31.2051 5.32443 31.2613 5.38062 31.3206C5.73217 31.6773 6.05471 32.0614 6.34517 32.4693L6.43881 32.6036C6.73976 33.0419 7.00192 33.5056 7.22231 33.9895C7.2318 34.0034 7.24015 34.018 7.24729 34.0332L28.1802 24.7186C28.496 24.5744 28.7402 24.3089 28.8577 23.9823C28.9753 23.6556 28.956 23.2954 28.8045 22.983Z" stroke="#C4CCD8"/>
</svg>
