<svg width="42" height="42" viewBox="0 0 42 42" fill="none" xmlns="http://www.w3.org/2000/svg">
<path d="M25.4511 9.12634H34.7606C35.3905 9.12634 35.9946 9.37656 36.4399 9.82193C36.8853 10.2673 37.1355 10.8713 37.1355 11.5012V37.625C37.1355 38.2549 36.8853 38.8589 36.4399 39.3043C35.9946 39.7497 35.3905 39.9999 34.7606 39.9999H13.3866C12.7567 39.9999 12.1527 39.7497 11.7073 39.3043C11.2619 38.8589 11.0117 38.2549 11.0117 37.625V23.5538L25.4511 9.12634Z" stroke="#C4CCD8"/>
<path d="M25.052 3.05463C25.3137 3.44589 25.4532 3.90609 25.4528 4.37679V9.12657L25.4511 9.12834V21.179C25.4511 21.8088 25.2008 22.4129 24.7555 22.8583C24.3101 23.3037 23.706 23.5539 23.0762 23.5539L6.2637 23.554C5.79199 23.5568 5.33015 23.419 4.93706 23.1582C4.54397 22.8975 4.23744 22.5255 4.05655 22.0899C3.87566 21.6542 3.82861 21.1746 3.9214 20.712C4.01418 20.2495 4.2426 19.8251 4.57753 19.493L21.3918 2.70249C21.7232 2.36829 22.1465 2.14013 22.6079 2.04698C23.0693 1.95382 23.548 1.99987 23.9831 2.17928C24.4183 2.35869 24.7903 2.66337 25.052 3.05463Z" stroke="#C4CCD8"/>
</svg>
