<svg width="42" height="42" viewBox="0 0 42 42" fill="none" xmlns="http://www.w3.org/2000/svg">
<path d="M9.05438 5H34.216C35.0444 5 35.716 5.67157 35.716 6.5C35.716 6.87346 35.5767 7.23348 35.3253 7.50967L22.1365 22L6.83984 5.92048C7.11404 5.63767 7.43005 5.41355 7.78786 5.24813C8.14567 5.08271 8.56785 5 9.05438 5Z" stroke="#C4CCD8"/>
<path d="M6 8.00452C6 7.19547 6.32026 6.46122 6.84093 5.92163L22.1365 22L22.1175 22.0246L22.14 22L35.3209 36.4894C35.5728 36.7657 35.7124 37.1261 35.7124 37.5C35.7124 38.3284 35.0409 39 34.2124 39H9C7.34315 39 6 37.6569 6 36V8.00452Z" stroke="#C4CCD8"/>
<path d="M8.87501 39H34.2124C35.0409 39 35.7124 38.3284 35.7124 37.5C35.7124 37.1261 35.5728 36.7657 35.3209 36.4894L22.11 22L8.13605 37.3262C7.76395 37.7344 7.79314 38.3669 8.20125 38.739C8.38545 38.9069 8.62574 39 8.87501 39Z" stroke="#C4CCD8"/>
</svg>
