<svg width="42" height="42" viewBox="0 0 42 42" fill="none" xmlns="http://www.w3.org/2000/svg">
<path d="M20.05 1.00996C23.4351 1.32577 26.7377 2.28014 29.7804 3.83046C32.823 5.38077 35.5364 7.49169 37.7816 10.0447C38.6958 11.0842 38.4392 12.6609 37.3192 13.4746L21.5269 24.9483C19.87 26.1522 17.5469 24.9685 17.5469 22.9204V3.40011C17.5469 2.01572 18.6716 0.88136 20.05 1.00996Z" stroke="#C4CCD8"/>
<path d="M34.3332 25.3333C34.3332 16.6809 27.319 9.66675 18.6666 9.66675C10.0142 9.66675 3 16.6809 3 25.3333C3 33.9857 10.0142 40.9999 18.6666 40.9999C27.319 40.9999 34.3332 33.9857 34.3332 25.3333Z" stroke="#C4CCD8"/>
</svg>
