<svg xmlns:xlink="http://www.w3.org/1999/xlink" class="Icon " viewBox="0 0 40 32" xmlns="http://www.w3.org/2000/svg" width="40" height="32"><defs><clipPath id="circularArrowsIconClipPath--a"><path d="M20 32A16 16 0 0 1 4 16H0l6-7 6 7H8a12 12 0 1 0 24 0 2 2 0 1 1 4 0 16 16 0 0 1-16 16z" class="Icon__blendBackground" fill="var(--blendBackground)"></path></clipPath></defs><path d="M20 32A16 16 0 0 1 4 16H0l6-7 6 7H8a12 12 0 1 0 24 0 2 2 0 1 1 4 0 16 16 0 0 1-16 16z" class="Icon__blendBackground" fill="#FFD848"></path><path d="M20 0a16 16 0 0 1 16 16h4l-6 7-6-7h4a12 12 0 1 0-24 0 2 2 0 1 1-4 0A16 16 0 0 1 20 0z" class="Icon__blendForeground" fill="#00D924"></path><g clip-path="url(#circularArrowsIconClipPath--a)"><path d="M20 0a16 16 0 0 1 16 16h4l-6 7-6-7h4a12 12 0 1 0-24 0 2 2 0 1 1-4 0A16 16 0 0 1 20 0z" class="Icon__blendForeground" fill="#00A600"></path></g></svg>